G04 Layer_Color=16711935*
%FSLAX25Y25*%
%MOIN*%
G70*
G01*
G75*
%ADD10C,0.00039*%
D10*
X-459481Y6019D02*
X-34285D01*
X-459481D02*
Y704836D01*
X-34285D01*
Y6019D02*
Y704836D01*
X-427124Y18812D02*
X-420966D01*
X-427699D02*
X-427124D01*
X-429419Y19279D02*
X-427699Y18812D01*
X-431301Y20548D02*
X-429419Y19279D01*
X-432571Y22431D02*
X-431301Y20548D01*
X-433032Y24151D02*
X-432571Y22431D01*
X-433032Y24151D02*
Y24721D01*
Y25296D01*
X-432571Y27016D01*
X-431301Y28898D01*
X-429419Y30168D01*
X-427699Y30629D01*
X-427124D01*
X-420966D01*
X-420396D01*
X-418677Y30168D01*
X-416799Y28898D01*
X-415530Y27016D01*
X-415063Y25296D01*
Y24721D02*
Y25296D01*
Y24151D02*
Y24721D01*
X-415530Y22431D02*
X-415063Y24151D01*
X-416799Y20548D02*
X-415530Y22431D01*
X-418677Y19279D02*
X-416799Y20548D01*
X-420396Y18812D02*
X-418677Y19279D01*
X-420966Y18812D02*
X-420396D01*
X-72795D02*
X-66637D01*
X-73370D02*
X-72795D01*
X-75089Y19279D02*
X-73370Y18812D01*
X-76973Y20548D02*
X-75089Y19279D01*
X-78242Y22431D02*
X-76973Y20548D01*
X-78703Y24151D02*
X-78242Y22431D01*
X-78703Y24151D02*
Y24721D01*
Y25296D01*
X-78242Y27016D01*
X-76973Y28898D01*
X-75089Y30168D01*
X-73370Y30629D01*
X-72795D01*
X-66637D01*
X-66067D01*
X-64348Y30168D01*
X-62470Y28898D01*
X-61200Y27016D01*
X-60734Y25296D01*
Y24721D02*
Y25296D01*
Y24151D02*
Y24721D01*
X-61200Y22431D02*
X-60734Y24151D01*
X-62470Y20548D02*
X-61200Y22431D01*
X-64348Y19279D02*
X-62470Y20548D01*
X-66067Y18812D02*
X-64348Y19279D01*
X-66637Y18812D02*
X-66067D01*
X-72795Y680233D02*
X-66637D01*
X-73370D02*
X-72795D01*
X-75089Y680700D02*
X-73370Y680233D01*
X-76973Y681969D02*
X-75089Y680700D01*
X-78242Y683845D02*
X-76973Y681969D01*
X-78703Y685565D02*
X-78242Y683845D01*
X-78703Y685565D02*
Y686136D01*
Y686711D01*
X-78242Y688430D01*
X-76973Y690312D01*
X-75089Y691582D01*
X-73370Y692044D01*
X-72795D01*
X-66637D01*
X-66067D01*
X-64348Y691582D01*
X-62470Y690312D01*
X-61200Y688430D01*
X-60734Y686711D01*
Y686136D02*
Y686711D01*
Y685565D02*
Y686136D01*
X-61200Y683845D02*
X-60734Y685565D01*
X-62470Y681969D02*
X-61200Y683845D01*
X-64348Y680700D02*
X-62470Y681969D01*
X-66067Y680233D02*
X-64348Y680700D01*
X-66637Y680233D02*
X-66067D01*
X-427129D02*
X-420971D01*
X-427704D02*
X-427129D01*
X-429424Y680700D02*
X-427704Y680233D01*
X-431301Y681969D02*
X-429424Y680700D01*
X-432571Y683845D02*
X-431301Y681969D01*
X-433032Y685565D02*
X-432571Y683845D01*
X-433032Y685565D02*
Y686136D01*
Y686711D01*
X-432571Y688430D01*
X-431301Y690312D01*
X-429424Y691582D01*
X-427704Y692044D01*
X-427129D01*
X-420971D01*
X-420402D01*
X-418682Y691582D01*
X-416799Y690312D01*
X-415530Y688430D01*
X-415063Y686711D01*
Y686136D02*
Y686711D01*
Y685565D02*
Y686136D01*
X-415530Y683845D02*
X-415063Y685565D01*
X-416799Y681969D02*
X-415530Y683845D01*
X-418682Y680700D02*
X-416799Y681969D01*
X-420402Y680233D02*
X-418682Y680700D01*
X-420971Y680233D02*
X-420402D01*
M02*
